<?xml version="1.0" encoding="UTF-8"?>
<svg id="Layer_1" xmlns="http://www.w3.org/2000/svg" version="1.1" viewBox="0 0 24 24">
  <!-- Generator: Adobe Illustrator 29.0.0, SVG Export Plug-In . SVG Version: 2.1.0 Build 186)  -->
  <defs>
    <style>
      .st0 {
        fill: #fff;
      }
    </style>
  </defs>
  <path class="st0" d="M12,2C6.5,2,2,6.5,2,12s2.9,8.2,6.8,9.5c.5,0,.7-.2.7-.5s0-1,0-1.9c-2.5.5-3.2-.6-3.4-1.2-.1-.3-.6-1.2-1-1.4-.3-.2-.8-.6,0-.7.8,0,1.3.7,1.5,1,.9,1.5,2.3,1.1,2.9.8,0-.6.3-1.1.6-1.3-2.2-.2-4.6-1.1-4.6-4.9s.4-2,1-2.7c0-.2-.5-1.3,0-2.7,0,0,.8-.3,2.8,1,.8-.2,1.7-.3,2.5-.3s1.7.1,2.5.3c1.9-1.3,2.7-1,2.7-1,.6,1.4.2,2.4.1,2.7.6.7,1,1.6,1,2.7,0,3.8-2.3,4.7-4.6,4.9.4.3.7.9.7,1.9,0,1.3,0,2.4,0,2.8s.2.6.7.5c4.1-1.4,6.8-5.2,6.8-9.5,0-5.5-4.5-10-10-10Z"/>
</svg>