<?xml version="1.0" encoding="UTF-8"?>
<svg id="Layer_1" xmlns="http://www.w3.org/2000/svg" version="1.1" viewBox="0 0 24 24">
  <!-- Generator: Adobe Illustrator 29.0.0, SVG Export Plug-In . SVG Version: 2.1.0 Build 186)  -->
  <defs>
    <style>
      .st0 {
        fill: #fff;
      }
    </style>
  </defs>
  <path class="st0" d="M12,9c-1.7,0-3,1.3-3,3s1.3,3,3,3,3-1.3,3-3-1.3-3-3-3ZM12,7c2.8,0,5,2.2,5,5s-2.2,5-5,5-5-2.2-5-5,2.2-5,5-5ZM18.5,6.7c0,.7-.6,1.3-1.2,1.3s-1.2-.6-1.2-1.3.6-1.2,1.2-1.2c.7,0,1.2.6,1.2,1.2ZM12,4c-2.5,0-2.9,0-4,0-.8,0-1.3.1-1.8.3-.4.2-.7.4-1.1.7s-.5.6-.7,1.1c-.2.5-.3,1-.3,1.8,0,1.1,0,1.5,0,4s0,2.9,0,4c0,.8.1,1.3.3,1.8.2.4.4.7.7,1.1.3.3.6.5,1.1.7.5.2,1,.3,1.8.3,1.1,0,1.5,0,4,0s2.9,0,4,0c.8,0,1.3-.1,1.8-.3.4-.2.7-.4,1.1-.7.3-.3.5-.6.7-1.1.2-.5.3-1,.3-1.8,0-1.1,0-1.5,0-4s0-2.9,0-4c0-.8-.1-1.3-.3-1.8-.2-.4-.4-.7-.7-1.1-.3-.3-.6-.5-1.1-.7-.5-.2-1-.3-1.8-.3-1.1,0-1.5,0-4,0ZM12,2c2.7,0,3.1,0,4.1,0,1.1,0,1.8.2,2.4.5.7.3,1.2.6,1.8,1.2.6.6.9,1.1,1.2,1.8.2.6.4,1.4.5,2.4,0,1.1,0,1.4,0,4.1s0,3.1,0,4.1c0,1.1-.2,1.8-.5,2.4-.3.7-.6,1.2-1.2,1.8-.6.6-1.1.9-1.8,1.2-.6.2-1.4.4-2.4.5-1.1,0-1.4,0-4.1,0s-3.1,0-4.1,0c-1.1,0-1.8-.2-2.4-.5-.7-.3-1.2-.6-1.8-1.2-.6-.6-.9-1.1-1.2-1.8-.2-.6-.4-1.4-.5-2.4,0-1.1,0-1.4,0-4.1s0-3.1,0-4.1c0-1.1.2-1.8.5-2.4.3-.7.6-1.2,1.2-1.8.6-.6,1.1-.9,1.8-1.2.6-.2,1.4-.4,2.4-.5,1.1,0,1.4,0,4.1,0Z"/>
</svg>