<?xml version="1.0" encoding="UTF-8"?>
<svg id="Layer_1" xmlns="http://www.w3.org/2000/svg" version="1.1" viewBox="0 0 24 24">
  <!-- Generator: Adobe Illustrator 29.0.0, SVG Export Plug-In . SVG Version: 2.1.0 Build 186)  -->
  <defs>
    <style>
      .st0 {
        fill: #fff;
      }
    </style>
  </defs>
  <path class="st0" d="M12.9,1.4c-.5-.3-1.2-.3-1.8,0L3.4,5.9c-.5.3-.9.9-.9,1.5v9.1c0,.6.3,1.2.9,1.5l2.6,1.5c1.3.8,3-.2,3-1.7V7.7h-2v10.2l-2.5-1.5V7.6l7.5-4.4,7.5,4.4v8.9l-7.5,4.4-1.8-1-1,1.7,1.9,1.1c.5.3,1.2.3,1.8,0l7.8-4.6c.5-.3.9-.9.9-1.5V7.4c0-.6-.3-1.2-.9-1.5L12.9,1.4ZM14,7.5c-1.4,0-2.3.4-2.9,1-.6.6-.7,1.3-.7,1.8s.2,1.1.5,1.5c.3.4.7.6,1.1.8.7.3,1.6.4,2.3.5h0c.8,0,1.5.2,1.9.4.2,0,.3.2.3.2,0,0,0,0,0,.3,0,.3,0,.4-.4.6-.3.2-1,.3-1.9.3s-1.6-.2-1.9-.4c-.3-.2-.5-.5-.4-1.1l-2-.2c-.1,1.3.4,2.3,1.3,3,.9.6,2,.8,3.1.8s2.1-.2,2.9-.6c.8-.5,1.4-1.3,1.4-2.3s-.2-1.1-.5-1.5c-.3-.4-.7-.7-1.1-.8-.7-.3-1.6-.4-2.4-.5h0c-.8,0-1.5-.2-1.9-.3-.2,0-.3-.2-.3-.2,0,0,0,0,0-.2s0-.2.1-.3c.1-.1.5-.4,1.5-.4s1.6.1,1.9.3c.2.1.4.4.5,1.1h2c0-1.3-.5-2.3-1.5-2.9-.8-.5-1.9-.6-2.9-.6Z"/>
</svg>