<?xml version="1.0" encoding="UTF-8"?>
<svg id="Layer_1" xmlns="http://www.w3.org/2000/svg" version="1.1" viewBox="0 0 800 800">
  <!-- Generator: Adobe Illustrator 29.0.0, SVG Export Plug-In . SVG Version: 2.1.0 Build 186)  -->
  <defs>
    <style>
      .st0 {
        fill: #fff;
      }
    </style>
  </defs>
  <path class="st0" d="M570.9,0c-31.1.2-62,4.8-91.8,13.4l-2.1.7c-18.8-3.3-37.9-5.2-57-5.5-39.3-.7-73,8.9-100.2,24.7-26.8-9.3-82.4-25.3-141-22.1-40.8,2.2-85.3,14.6-118.3,49.5C27.6,95.5,10.2,149.4,13.8,222.7c1,20.2,6.8,53.2,16.3,96,9.6,42.7,23,92.8,39.8,138.4,16.8,45.7,35.1,86.7,63.8,114.5,14.3,14,34.1,25.7,57.3,24.7,16.3-.7,31.1-7.8,43.8-18.4,6.2,8.2,12.8,11.7,18.9,15,7.6,4.2,15,7,22.7,8.9,13.8,3.4,37.3,8,64.9,3.3,9.4-1.6,19.3-4.6,29.2-9,.4,11,.8,21.8,1.2,32.7,1.4,34.5,2.2,66.4,12.6,94.4,1.7,4.6,6.2,28.1,24.2,48.9,18,20.8,53.3,33.8,93.4,25.2,28.3-6.1,64.4-17,88.3-51.1,23.7-33.7,34.3-82,36.4-160.3.5-4.2,1.2-7.8,1.8-11.2l5.6.5h.7c30.2,1.4,63-2.9,90.4-15.7,24.3-11.2,42.6-22.6,56-42.8,3.3-5,7-11,8-21.4s-5-26.7-14.9-34.2c-19.8-15.1-32.3-9.3-45.7-6.6-13.2,2.9-26.6,4.5-40.1,4.9,38.5-64.9,66.2-133.8,81.9-194.8,9.3-36,14.6-69.2,15-98.2.4-29-1.9-54.7-19.3-77C712,20,635.6.8,576.4.1c-1.8,0-3.7,0-5.5,0h0ZM569.4,21.3c55.9-.5,127.4,15.2,178.7,80.7,11.5,14.7,15,36.3,14.6,62.8-.4,26.5-5.3,58.2-14.3,93-17.4,67.3-50.3,145.8-96.6,216.3,1.6,1.2,3.4,2.1,5.3,2.9,9.7,4,31.7,7.4,75.7-1.6,11.1-2.3,19.2-3.9,27.6,2.5,4.1,3.5,6.4,8.8,6.1,14.2-.4,4-1.9,7.9-4.3,11.2-8.5,12.8-25.3,24.9-46.8,34.8-19,8.9-46.3,13.5-70.5,13.8-12.1.1-23.3-.8-32.8-3.8l-.6-.2c-3.7,35.3-12.1,105.1-17.6,136.9-4.4,25.7-12.1,46.1-26.8,61.3-14.7,15.3-35.4,24.5-63.4,30.5-34.6,7.4-59.8-.6-76.1-14.3-16.2-13.7-23.7-31.8-28.1-42.9-3.1-7.7-4.7-17.6-6.2-30.9s-2.7-29.5-3.4-47.8c-1-28-1.4-56.1-1-84.1-14.5,13.2-32.4,22-51.7,25.3-23,3.9-43.5,0-55.7-3-6-1.5-11.9-3.8-17.3-6.7-5.7-3-11.1-6.5-14.7-13.2-2.1-3.9-2.8-8.4-1.9-12.7,1.1-4.4,3.7-8.3,7.3-11,6.6-5.4,15.3-8.4,28.5-11.1,24-4.9,32.3-8.3,37.4-12.3,4.3-3.5,9.2-10.5,17.9-20.7,0-.5,0-.9-.1-1.4-15.5-.4-30.7-4.5-44.3-11.9-5,5.3-30.5,32.3-61.7,69.7-13.1,15.7-27.6,24.7-42.8,25.3-15.3.7-29.1-7-40.8-18.4-23.4-22.8-42.1-61.9-58.4-106.2-16.3-44.3-29.5-93.6-38.9-135.6-9.4-42-15-75.9-15.8-92.2-3.5-69.4,12.7-116.2,40.6-145.7,27.9-29.5,66.1-40.7,103.3-42.8,66.8-3.8,130.3,19.5,143.1,24.5,24.7-16.8,56.6-27.3,96.4-26.6,18.9.3,37.7,2.7,56,7.3l.7-.3c8.1-2.8,16.3-5.2,24.6-7.1,22.6-5.3,45.8-8.1,69-8.4h0ZM574.4,43.7h-4.9c-19.1.3-38.1,2.4-56.8,6.4,41.5,18.4,72.9,46.7,95,75,15.4,19.6,28,41.1,37.7,64,3.7,8.8,6.1,16.2,7.5,22,.7,2.9,1.2,5.3,1.3,7.9,0,1.3.1,2.6-.4,4.8,0,0-.2.3-.2.4,1,29.2-6.2,49-7.1,76.9-.7,20.2,4.5,43.9,5.8,69.8,1.2,24.3-1.7,51.1-17.5,77.3,1.3,1.6,2.5,3.2,3.8,4.8,41.8-65.8,71.9-138.7,88-200.8,8.6-33.4,13.2-63.7,13.6-87.7.3-24-4.1-41.4-9.8-48.7-44.7-57.2-105.3-71.8-156-72.2h0ZM414.8,52.2c-39.4.1-67.7,12-89.1,29.8-22.1,18.4-36.9,43.7-46.7,69.5-11.6,30.7-15.5,60.3-17.1,80.5l.4-.3c11.9-6.7,27.5-13.3,44.3-17.2,16.7-3.8,34.8-5,51.1,1.3s29.8,21.2,34.7,43.8c23.5,108.6-7.3,148.9-18.6,179.4-4.3,11-8,22.3-11,33.8,1.4-.3,2.9-.7,4.3-.9,8-.7,14.3,2,18,3.6,11.4,4.7,19.2,14.7,23.5,26,1.1,3,1.9,6.2,2.4,9.5.5,1.4.7,2.8.7,4.2-1.3,41.5-1.1,83.1.4,124.6.8,17.9,1.9,33.7,3.3,46.2,1.4,12.4,3.5,21.9,4.8,25.1,4.3,10.7,10.5,24.6,21.8,34.1,11.3,9.5,27.4,15.8,57,9.5,25.6-5.5,41.4-13.1,52-24.1,10.5-11,16.8-26.2,20.9-49.6,6-35,18.2-136.5,19.6-155.6-.7-14.4,1.5-25.5,6.1-33.9,4.7-8.7,12.1-14,18.4-16.8,3.2-1.4,6.1-2.4,8.6-3.1-2.6-3.7-5.3-7.3-8.1-10.8-9.1-11.1-16.6-23.4-22.2-36.6-2.7-5.5-5.5-10.8-8.6-16.1-4.4-8-10-18-15.9-29.2-11.7-22.5-24.5-49.8-31.1-76.3-6.6-26.5-7.6-54,9.4-73.4,15-17.2,41.3-24.3,80.9-20.3-1.2-3.5-1.9-6.4-3.8-11.1-8.9-21-20.6-40.8-34.7-58.8-33.5-42.8-87.7-85.3-171.5-86.7h-3.8,0ZM193.4,53.9c-4.2,0-8.5.1-12.7.4-33.7,1.9-65.5,11.7-88.3,35.8-22.8,24.1-37.8,63.7-34.5,129.2.6,12.4,6,47.1,15.3,88.4,9.2,41.3,22.3,89.8,38.1,132.7,15.8,42.9,34.9,80.2,53,97.9,9.1,8.8,17.1,12.4,24.3,12.1,7.2-.3,15.9-4.5,26.6-17.3,19.4-23.4,39.5-46.2,60.3-68.3-30-26.1-44.7-65.7-38.9-105,3.4-24.6,3.9-47.7,3.5-65.9-.4-17.7-1.7-29.5-1.7-36.9,0-.2,0-.4,0-.6v-.4s0,0,0,0c0-38.4,6.7-76.5,19.7-112.5,9.3-24.8,23.2-50,44.1-70.4-20.5-6.7-56.8-17-96.1-18.9-4.2-.2-8.4-.3-12.7-.3h0ZM606.6,230c-22.6.3-35.3,6.1-42,13.8-9.4,10.8-10.3,29.8-4.5,53.2,5.8,23.4,17.9,49.6,29.2,71.4,5.7,10.9,11.2,20.7,15.6,28.7,4.5,8,7.7,13.7,9.7,18.5,1.8,4.5,3.9,8.4,5.9,12.1,8.8-18.5,10.3-36.7,9.4-55.6-1.2-23.4-6.6-47.4-5.8-71.7.9-28.4,6.5-46.8,7-68.8-8.2-1.1-16.4-1.6-24.7-1.6ZM332.2,233.8c-6.9,0-13.8.9-20.5,2.5-13.4,3.3-26.3,8.3-38.4,15-4.1,2.2-8,4.7-11.6,7.6l-.7.7c.2,4.9,1.2,16.7,1.6,34,.4,19,0,43.2-3.7,69.5-8,57,33.4,104.2,82,104.3,2.8-11.7,7.5-23.6,12.2-36.1,13.5-36.5,40.2-63.1,17.7-166.9-3.7-17-10.9-23.9-20.9-27.7-5.6-2-11.5-2.9-17.5-2.8h0ZM596.1,240.6h1.7c2.2,0,4.2.3,6,.7,1.8.4,3.3,1,4.6,1.8,1.3.8,2.2,2.1,2.5,3.7v.3s0,0,0,0h0c0,1.6-.3,3.1-1.2,4.5-1,1.8-2.2,3.5-3.7,5-3.4,3.7-7.9,6.2-12.9,7.1-4.8.6-9.7-.6-13.7-3.4-1.6-1.1-3.1-2.4-4.3-3.9-1.1-1.2-1.8-2.7-2.1-4.2-.1-1.6.4-3.1,1.4-4.3,1.1-1.2,2.4-2.3,3.9-3,3.2-1.8,7.5-3.1,12.4-3.9,1.8-.3,3.6-.4,5.3-.4h0ZM335.4,246.2c1.8,0,3.6.2,5.5.4,5.1.7,9.6,2.1,13.1,4.1,1.7.9,3.2,2.1,4.4,3.5,1.4,1.6,2,3.6,1.8,5.7-.3,1.9-1.2,3.7-2.5,5.1-1.4,1.7-3,3.1-4.8,4.3-4.3,3.1-9.7,4.4-14.9,3.8-5.4-.9-10.3-3.6-14-7.6-1.6-1.6-2.9-3.5-3.9-5.5-1.1-1.8-1.6-3.8-1.4-5.9.5-3.6,3.5-5.5,6.4-6.5,3.3-1.1,6.8-1.5,10.2-1.3h0ZM637.4,491h-.1c-4.9,1.8-8.9,2.5-12.3,4-3.4,1.3-6.3,3.9-8,7.1-2.1,3.8-3.9,10.6-3.4,22.2,1.5,1,3.2,1.8,4.9,2.3,5.7,1.7,15.3,2.9,25.9,2.7,21.3-.2,47.4-5.2,61.3-11.7,11.4-5.3,22-12.2,31.4-20.5h0c-46.4,9.6-72.7,7-88.8.4-4-1.7-7.7-3.9-11.1-6.7h0ZM369.7,494.1h-.7c-1.8.2-4.3.8-9.3,6.3-11.6,13-15.7,21.2-25.2,28.8-9.6,7.6-22,11.7-46.8,16.8-7.9,1.6-12.4,3.4-15.4,4.8,1,.8.9,1,2.3,1.8,3.6,2,8.3,3.8,12.1,4.7,10.7,2.7,28.2,5.8,46.5,2.7,18.3-3.1,37.3-11.9,53.6-34.7,2.8-3.9,3.1-9.7.8-16-2.3-6.2-7.4-11.6-11-13.1-2.1-1-4.4-1.7-6.8-2h0Z"/>
</svg>