<?xml version="1.0" encoding="UTF-8"?>
<svg id="Layer_1" xmlns="http://www.w3.org/2000/svg" version="1.1" viewBox="0 0 800 800">
  <!-- Generator: Adobe Illustrator 29.0.0, SVG Export Plug-In . SVG Version: 2.1.0 Build 186)  -->
  <defs>
    <style>
      .st0 {
        fill: #fff;
      }
    </style>
  </defs>
  <path class="st0" d="M726,607.8L451.6,25.2c-6.9-14.6-21.3-24.2-37.5-25.1-16.2-1.1-31.6,6.9-40.1,20.8L76.5,502.8c-9.2,14.9-9,33.7.5,48.4l145.5,225.3c11.3,17.4,32.7,25.2,52.5,19.3l422.2-124.9c12.9-3.8,23.5-12.9,29.1-25.1,5.5-12.1,5.4-26-.3-38.1h0ZM664.5,632.8l-358.3,105.9c-10.9,3.3-21.4-6.2-19.1-17.3L415.1,108.6c2.4-11.5,18.2-13.3,23.2-2.7l236.9,503.2c2.1,4.5,2.1,9.8,0,14.3-2.1,4.6-6,8-10.9,9.4h0Z"/>
</svg>