<?xml version="1.0" encoding="UTF-8"?>
<svg id="Layer_1" xmlns="http://www.w3.org/2000/svg" version="1.1" viewBox="0 0 24 24">
  <!-- Generator: Adobe Illustrator 29.0.0, SVG Export Plug-In . SVG Version: 2.1.0 Build 186)  -->
  <defs>
    <style>
      .st0 {
        fill: #fff;
      }
    </style>
  </defs>
  <path class="st0" d="M14.4,16.2c-.6.8-1.2,1.5-1.7,2.2,1.7,1.6,3.2,2.4,4.1,1.9.9-.5,1-2.2.4-4.5-.9.2-1.8.3-2.8.4ZM13.1,16.3c-.4,0-.8,0-1.1,0s-.8,0-1.1,0c.4.5.8.9,1.1,1.4.4-.4.8-.9,1.1-1.4ZM18.2,8.4c2.7.8,4.4,2,4.4,3.6s-1.7,2.8-4.4,3.6c.7,2.7.4,4.8-.9,5.6-1.3.8-3.3-.1-5.3-2-2,1.9-4,2.8-5.3,2s-1.6-2.9-.9-5.6c-2.7-.8-4.4-2-4.4-3.6s1.7-2.8,4.4-3.6c-.7-2.7-.4-4.8.9-5.6s3.3.1,5.3,2c2-1.9,4-2.8,5.3-2,1.3.8,1.6,2.9.9,5.6ZM17.2,8.2c.6-2.3.4-4-.4-4.5-.9-.5-2.4.3-4.1,1.9.6.6,1.2,1.4,1.7,2.2,1,0,1.9.2,2.8.4ZM6.8,15.8c-.6,2.3-.4,4,.4,4.5.9.5,2.4-.3,4.1-1.9-.6-.6-1.2-1.4-1.7-2.2-1,0-1.9-.2-2.8-.4ZM10.9,7.7c.4,0,.8,0,1.1,0s.8,0,1.1,0c-.4-.5-.8-.9-1.1-1.4-.4.4-.8.9-1.1,1.4ZM9.6,7.8c.6-.8,1.2-1.5,1.7-2.2-1.7-1.6-3.2-2.4-4.1-1.9-.9.5-1,2.2-.4,4.5.9-.2,1.8-.3,2.8-.4ZM13.9,15.3c.3-.5.7-1,1-1.6.3-.6.6-1.1.9-1.7-.3-.6-.6-1.1-.9-1.7-.3-.6-.7-1.1-1-1.6-.6,0-1.2,0-1.9,0s-1.3,0-1.9,0c-.3.5-.7,1-1,1.6-.3.6-.6,1.1-.9,1.7.3.6.6,1.1.9,1.7.3.6.7,1.1,1,1.6.6,0,1.2,0,1.9,0s1.3,0,1.9,0ZM15.2,15.1c.6,0,1.2-.2,1.8-.3-.2-.5-.4-1.1-.6-1.7-.2.3-.4.7-.5,1-.2.3-.4.7-.6,1ZM8.8,8.9c-.6,0-1.2.2-1.8.3.2.5.4,1.1.6,1.7.2-.3.4-.7.5-1,.2-.3.4-.7.6-1ZM7.1,14.8c.5.1,1.1.2,1.8.3-.2-.3-.4-.6-.6-1-.2-.3-.4-.7-.5-1-.2.6-.4,1.1-.6,1.7ZM6.1,14.6c.3-.8.6-1.7,1-2.6-.4-.9-.7-1.8-1-2.6-2.2.6-3.7,1.6-3.7,2.6s1.4,2,3.7,2.6ZM16.9,9.2c-.5-.1-1.1-.2-1.8-.3.2.3.4.6.6,1,.2.3.4.7.5,1,.2-.6.4-1.1.6-1.7ZM17.9,9.4c-.3.8-.6,1.7-1,2.6.4.9.7,1.8,1,2.6,2.2-.6,3.7-1.6,3.7-2.6s-1.4-2-3.7-2.6ZM12,13.9c-1,0-1.9-.8-1.9-1.9s.8-1.9,1.9-1.9,1.9.8,1.9,1.9-.8,1.9-1.9,1.9Z"/>
</svg>